<?xml version="1.0"?>
<svg xmlns="http://www.w3.org/2000/svg" height="512px" viewBox="0 0 512 512" width="512px"><g><script xmlns="" class="active-path"/><path d="m60 512c33.089844 0 61-26.910156 61-60s-27.910156-61-61-61-60 27.910156-60 61 26.910156 60 60 60zm0 0" data-original="#000000" class="active-path" fill="#FFFFFF"/><path d="m15 300h30c91.125 0 167 75.871094 167 167v30c0 8.285156 6.714844 15 15 15h30c8.285156 0 15-6.714844 15-15v-30c0-124.265625-102.734375-227-227-227h-30c-8.285156 0-15 6.714844-15 15v30c0 8.285156 6.714844 15 15 15zm0 0" data-original="#000000" class="active-path" fill="#FFFFFF"/><path d="m15 180h30c157.402344 0 287 129.597656 287 287v30c0 8.285156 6.714844 15 15 15h30c8.285156 0 15-6.714844 15-15v-30c0-190.539062-156.460938-347-347-347h-30c-8.285156 0-15 6.714844-15 15v30c0 8.285156 6.714844 15 15 15zm0 0" data-original="#000000" class="active-path" fill="#FFFFFF"/><path d="m45 0h-30c-8.285156 0-15 6.714844-15 15v30c0 8.285156 6.714844 15 15 15h30c223.675781 0 407 183.324219 407 407v30c0 8.285156 6.714844 15 15 15h30c8.285156 0 15-6.714844 15-15v-30c0-256.8125-210.1875-467-467-467zm0 0" data-original="#000000" class="active-path" fill="#FFFFFF"/></g> </svg>
