<?xml version="1.0"?>
<svg xmlns="http://www.w3.org/2000/svg" xmlns:xlink="http://www.w3.org/1999/xlink" version="1.1" id="Capa_1" x="0px" y="0px" viewBox="0 0 477.88 477.88" style="enable-background:new 0 0 477.88 477.88;" xml:space="preserve" width="512px" height="512px"><g transform="matrix(-1 0 0 1 477.88 0)"><script xmlns="" class="active-path" style=""/><g>
	<g>
		<path d="M460.809,0H273.076c-4.526,0.001-8.866,1.8-12.066,5.001l-256,256c-6.669,6.661-6.675,17.467-0.013,24.136    c0.004,0.004,0.009,0.009,0.013,0.013l187.733,187.733c6.665,6.662,17.468,6.662,24.132,0l256-256    c3.205-3.204,5.004-7.551,5.001-12.083V17.067C477.876,7.641,470.235,0,460.809,0z M358.409,153.6    c-18.851,0-34.133-15.282-34.133-34.133s15.282-34.133,34.133-34.133s34.133,15.282,34.133,34.133S377.26,153.6,358.409,153.6z" data-original="#000000" class="active-path" fill="#000000"/>
	</g>
</g></g> </svg>
